<svg width="260" height="260" viewBox="0 0 260 260" fill="none" xmlns="http://www.w3.org/2000/svg">
<path d="M37.939 17.0831C39.191 17.0068 40.446 17.0026 41.6985 17.0707C49.1152 17.5189 63.8107 22.9818 70.7177 25.6555C107.943 40.0648 144.227 61.2038 172.57 89.5938C179.412 96.4475 185.697 104.796 191.538 112.555C193.713 115.443 195.847 119.685 198.049 122.181C196.137 111.753 189.26 95.8962 181.877 88.1312C184.887 88.2685 188.411 87.9907 191.528 88.017C194.868 88.045 197.185 88.48 200.389 88.815C214.444 90.2845 226.697 95.9532 236.698 106.074C248.203 117.718 254.58 132.993 257.107 149.014C257.525 152.084 258.042 155.138 257.995 158.248C257.717 176.621 239.295 175.063 226.283 175.01C216.386 174.924 206.49 174.748 196.596 174.483C194.239 176.027 192.258 178.256 190.074 180.024C185.779 183.501 181.39 187.207 176.95 190.476C162.254 201.297 145.75 209.769 129.381 217.739C128.635 218.249 121.583 221.288 120.312 221.843C102.814 229.37 84.8967 235.885 66.6502 241.355C54.9972 244.787 46.038 243.675 42.64 230.186C37.346 209.17 41.4372 180.92 51.6097 161.961C66.634 133.959 96.759 125.384 126.363 125.366C130.24 125.323 134.291 125.914 137.912 125.904C148.783 125.872 160.31 126.551 171.066 125.386C174.67 124.996 182.061 124.833 185.21 123.911L185.355 123.868C176.398 121.947 166.404 120.341 157.246 118.888C107.209 110.952 50.7445 95.633 33.1325 41.6085C30.6992 34.1445 27.7697 20.0358 37.939 17.0831Z" fill="#22D3EE"/>
<path d="M8.62028 71.0845C18.1587 70.3303 26.1557 71.5948 35.3712 73.591C45.8185 75.8543 46.8132 81.3673 54.1835 88.2685C69.001 102.143 85.2985 109.947 104.262 116.905C100.435 117.043 97.5965 116.85 93.713 117.233L93.5657 117.267C90.5145 117.965 87.1522 118.08 84.0257 118.473C63.5977 121.04 42.7147 117.873 25.0377 106.854C16.1091 100.931 4.54901 91.622 1.2845 81.1332C-0.45364 75.5487 3.48216 72.0758 8.62028 71.0845Z" fill="#9CA3AF"/>
</svg>
